<svg xmlns="http://www.w3.org/2000/svg" width="101" height="28" viewBox="0 0 101 28" fill="none">
<g clip-path="url(#clip0_8836_24384)">
<path d="M13.9999 7.4375L12.6932 15.2902C12.6591 15.5022 12.5382 15.6958 12.3522 15.826L12.3493 15.828L9.35705 17.8811L8.12891 18.7341L11.9516 22.7605C13.046 23.9132 14.9538 23.9132 16.0481 22.7605L19.8709 18.7341L18.6427 17.8811L15.6505 15.828L15.6475 15.826C15.4616 15.6958 15.3407 15.5022 15.3066 15.2902L13.9999 7.4375Z" fill="#F7B809"/>
<path d="M14 8.68895L12.8297 15.7918C12.7992 15.9834 12.6909 16.1586 12.5243 16.2763L12.5217 16.2782L9.84179 18.1352L8.74184 18.9067L1.07887 24.3697C0.571302 24.7315 -0.130929 24.2856 0.0210988 23.698C2.89149 12.6032 9.32009 6.16291 13.4741 3.62231C13.6445 3.51809 13.7533 3.5 14 3.5C14.2467 3.5 14.3555 3.51809 14.5259 3.62231C18.6799 6.16291 25.1085 12.6032 27.9789 23.698C28.1309 24.2856 27.4287 24.7315 26.9211 24.3697L19.2582 18.9067L18.1582 18.1352L15.4783 16.2782L15.4757 16.2763C15.3091 16.1586 15.2008 15.9834 15.1703 15.7918L14 8.68895Z" fill="#FFDE84"/>
<path d="M40 20.1258V5.41992H49.5094V7.58378H42.6929V11.7015H48.205V13.8233H42.6929V20.1258H40Z" fill="#212327"/>
<path d="M52.1342 8.08824C51.6433 8.08824 51.2366 7.94118 50.914 7.64706C50.6054 7.35294 50.4512 6.98179 50.4512 6.53361C50.4512 6.08543 50.6054 5.72129 50.914 5.44118C51.2366 5.14706 51.6433 5 52.1342 5C52.6251 5 53.0249 5.14706 53.3334 5.44118C53.656 5.72129 53.8173 6.08543 53.8173 6.53361C53.8173 6.98179 53.656 7.35294 53.3334 7.64706C53.0249 7.94118 52.6251 8.08824 52.1342 8.08824ZM50.7878 20.126V9.70588H53.4807V20.126H50.7878Z" fill="#212327"/>
<path d="M55.4512 20.1263V9.7062H57.8496L58.1021 11.66C58.4808 10.9877 58.9927 10.4555 59.6379 10.0633C60.2971 9.65718 61.0685 9.4541 61.9522 9.4541V12.2902H61.1948C60.6057 12.2902 60.0797 12.3813 59.6169 12.5633C59.154 12.7454 58.7894 13.0605 58.5229 13.5087C58.2704 13.9569 58.1442 14.5801 58.1442 15.3785V20.1263H55.4512Z" fill="#212327"/>
<path d="M67.8346 20.3785C66.7827 20.3785 65.85 20.1544 65.0365 19.7062C64.223 19.258 63.5849 18.6278 63.122 17.8154C62.6592 17.0031 62.4277 16.0647 62.4277 15.0003C62.4277 13.9219 62.6521 12.9625 63.101 12.1221C63.5638 11.2818 64.195 10.6306 64.9944 10.1684C65.8079 9.6922 66.7617 9.4541 67.8557 9.4541C68.8796 9.4541 69.7842 9.67819 70.5696 10.1263C71.3551 10.5745 71.9652 11.1908 72.4 11.9751C72.8488 12.7454 73.0732 13.6067 73.0732 14.5591C73.0732 14.7132 73.0662 14.8742 73.0522 15.0423C73.0522 15.2104 73.0452 15.3855 73.0312 15.5675H65.0996C65.1557 16.3799 65.4362 17.0171 65.9412 17.4793C66.4601 17.9415 67.0843 18.1726 67.8136 18.1726C68.3606 18.1726 68.8164 18.0535 69.1811 17.8154C69.5598 17.5633 69.8403 17.2412 70.0226 16.849H72.7577C72.5613 17.5073 72.2317 18.1095 71.7688 18.6558C71.32 19.188 70.759 19.6081 70.0858 19.9163C69.4266 20.2244 68.6762 20.3785 67.8346 20.3785ZM67.8557 11.639C67.1965 11.639 66.6144 11.828 66.1095 12.2062C65.6046 12.5703 65.282 13.1306 65.1417 13.8869H70.3382C70.2961 13.2006 70.0437 12.6544 69.5808 12.2482C69.118 11.842 68.5429 11.639 67.8557 11.639Z" fill="#212327"/>
<path d="M74.9814 20.126V11.9538H73.5508V9.70588H74.9814V8.48739C74.9814 7.22689 75.297 6.33053 75.9281 5.79832C76.5733 5.26611 77.4429 5 78.5369 5H79.694V7.28992H78.9577C78.4948 7.28992 78.1652 7.38095 77.9689 7.56302C77.7725 7.7451 77.6743 8.05322 77.6743 8.48739V9.70588H79.9255V11.9538H77.6743V20.126H74.9814ZM82.0504 20.126V5H84.7433V20.126H82.0504Z" fill="#212327"/>
<path d="M91.6263 24.7481C90.35 24.7481 89.235 24.447 88.2812 23.8447C87.3415 23.2425 86.6963 22.4302 86.3457 21.4078L88.8913 20.4414C89.0596 20.9876 89.3752 21.4218 89.8381 21.7439C90.315 22.066 90.911 22.2271 91.6263 22.2271C92.3837 22.2271 92.9939 22.024 93.4567 21.6178C93.9196 21.2257 94.151 20.6304 94.151 19.8321V18.2565C93.8284 18.7187 93.4006 19.0688 92.8676 19.3069C92.3346 19.545 91.7315 19.6641 91.0583 19.6641C89.7259 19.6641 88.6739 19.2369 87.9025 18.3826C87.1311 17.5282 86.7454 16.3938 86.7454 14.9792V9.70605H89.5015V14.7481C89.5015 15.4624 89.7118 16.0436 90.1326 16.4918C90.5674 16.926 91.1284 17.1431 91.8157 17.1431C92.503 17.1431 93.057 16.919 93.4777 16.4708C93.9125 16.0226 94.1299 15.4274 94.1299 14.6851V9.70605H96.886V19.8321C96.886 20.8125 96.6616 21.6739 96.2128 22.4162C95.7639 23.1585 95.1398 23.7327 94.3403 24.1389C93.5409 24.545 92.6362 24.7481 91.6263 24.7481Z" fill="#212327"/>
</g>
<defs>
<clipPath id="clip0_8836_24384">
<rect width="101" height="28" fill="white"/>
</clipPath>
</defs>
</svg>