<svg xmlns="http://www.w3.org/2000/svg" width="64" height="64" viewBox="0 0 64 64" fill="none">
<g clip-path="url(#clip0_8836_27221)">
<path fill-rule="evenodd" clip-rule="evenodd" d="M53.3346 32.0007V21.334L37.3346 5.33398H16.0013C13.068 5.33398 10.668 7.73398 10.668 10.6673V53.334C10.668 56.2673 13.068 58.6673 16.0013 58.6673H32.6734C32.2347 56.9627 32.0013 55.1756 32.0013 53.334L16.0013 53.334V10.6673H34.668V24.0007H48.0013V32.6727C49.7059 32.234 51.493 32.0007 53.3346 32.0007Z" fill="#F7B809"/>
<path d="M47.0111 52.8623L49.8648 55.8976C50.7681 56.849 52.3428 56.849 53.2461 55.8976L56.1 52.8623M50.5896 50.1456L51.5556 44.2829L52.5215 50.1456C52.5467 50.3038 52.6361 50.4483 52.7736 50.5455L52.7757 50.5471L54.9877 52.0799L55.8956 52.7166L62.2206 57.2258C62.6396 57.5244 63.2192 57.1564 63.0937 56.6713C60.7245 47.5137 55.4183 42.198 51.9896 40.101C51.8489 40.0149 51.7592 40 51.5556 40C51.3519 40 51.2622 40.0149 51.1215 40.101C47.6928 42.198 42.3866 47.5137 40.0174 56.6713C39.8919 57.1564 40.4716 57.5244 40.8905 57.2258L47.2155 52.7166L48.1234 52.0799L50.3354 50.5471L50.3375 50.5455C50.475 50.4483 50.5644 50.3038 50.5896 50.1456Z" stroke="#F7B809" stroke-width="2"/>
</g>
<defs>
<clipPath id="clip0_8836_27221">
<rect width="64" height="64" fill="white"/>
</clipPath>
</defs>
</svg>