<svg xmlns="http://www.w3.org/2000/svg" width="100" height="24" viewBox="0 0 100 24" fill="none">
<rect width="100" height="24" rx="12" fill="#3B3C44"/>
<g clip-path="url(#clip0_8836_24482)">
<path fill-rule="evenodd" clip-rule="evenodd" d="M13 3C8.0275 3 4 7.0275 4 12C4 15.9825 6.57625 19.3462 10.1537 20.5387C10.6037 20.6175 10.7725 20.3475 10.7725 20.1112C10.7725 19.8975 10.7613 19.1887 10.7613 18.435C8.5 18.8512 7.915 17.8837 7.735 17.3775C7.63375 17.1187 7.195 16.32 6.8125 16.1062C6.4975 15.9375 6.0475 15.5212 6.80125 15.51C7.51 15.4987 8.01625 16.1625 8.185 16.4325C8.995 17.7937 10.2887 17.4112 10.8062 17.175C10.885 16.59 11.1213 16.1962 11.38 15.9712C9.3775 15.7462 7.285 14.97 7.285 11.5275C7.285 10.5487 7.63375 9.73875 8.2075 9.10875C8.1175 8.88375 7.8025 7.96125 8.2975 6.72375C8.2975 6.72375 9.05125 6.4875 10.7725 7.64625C11.4925 7.44375 12.2575 7.3425 13.0225 7.3425C13.7875 7.3425 14.5525 7.44375 15.2725 7.64625C16.9937 6.47625 17.7475 6.72375 17.7475 6.72375C18.2425 7.96125 17.9275 8.88375 17.8375 9.10875C18.4113 9.73875 18.76 10.5375 18.76 11.5275C18.76 14.9812 16.6562 15.7462 14.6537 15.9712C14.98 16.2525 15.2613 16.7925 15.2613 17.6362C15.2613 18.84 15.25 19.8075 15.25 20.1112C15.25 20.3475 15.4187 20.6287 15.8687 20.5387C17.6554 19.9355 19.2079 18.7873 20.3077 17.2555C21.4076 15.7238 21.9995 13.8857 22 12C22 7.0275 17.9725 3 13 3Z" fill="#E7E7E7"/>
</g>
<path d="M29.9993 15.108C29.4053 15.108 28.8863 14.973 28.4423 14.703C27.9983 14.433 27.6533 14.058 27.4073 13.578C27.1613 13.092 27.0383 12.528 27.0383 11.886C27.0383 11.238 27.1643 10.668 27.4163 10.176C27.6743 9.678 28.0373 9.291 28.5053 9.015C28.9793 8.733 29.5403 8.592 30.1883 8.592C30.9263 8.592 31.5383 8.769 32.0243 9.123C32.5103 9.477 32.8253 9.966 32.9693 10.59H31.6823C31.5863 10.296 31.4123 10.068 31.1603 9.906C30.9083 9.738 30.5843 9.654 30.1883 9.654C29.5583 9.654 29.0723 9.855 28.7303 10.257C28.3883 10.653 28.2173 11.199 28.2173 11.895C28.2173 12.591 28.3853 13.131 28.7213 13.515C29.0633 13.893 29.5253 14.082 30.1073 14.082C30.6773 14.082 31.1063 13.929 31.3943 13.623C31.6883 13.311 31.8653 12.903 31.9253 12.399H30.3323V11.535H33.0863V15H32.0243L31.9343 14.172C31.7303 14.472 31.4753 14.703 31.1693 14.865C30.8633 15.027 30.4733 15.108 29.9993 15.108ZM37.3382 15.108C36.7082 15.108 36.1562 14.97 35.6822 14.694C35.2142 14.418 34.8452 14.037 34.5752 13.551C34.3112 13.059 34.1792 12.492 34.1792 11.85C34.1792 11.208 34.3112 10.644 34.5752 10.158C34.8452 9.666 35.2142 9.282 35.6822 9.006C36.1562 8.73 36.7082 8.592 37.3382 8.592C37.9622 8.592 38.5112 8.73 38.9852 9.006C39.4592 9.282 39.8282 9.666 40.0922 10.158C40.3562 10.644 40.4882 11.208 40.4882 11.85C40.4882 12.492 40.3562 13.059 40.0922 13.551C39.8282 14.037 39.4592 14.418 38.9852 14.694C38.5112 14.97 37.9622 15.108 37.3382 15.108ZM37.3382 14.073C37.9382 14.073 38.4152 13.875 38.7692 13.479C39.1292 13.083 39.3092 12.54 39.3092 11.85C39.3092 11.16 39.1292 10.617 38.7692 10.221C38.4152 9.825 37.9382 9.627 37.3382 9.627C36.7382 9.627 36.2582 9.825 35.8982 10.221C35.5382 10.617 35.3582 11.16 35.3582 11.85C35.3582 12.54 35.5382 13.083 35.8982 13.479C36.2582 13.875 36.7382 14.073 37.3382 14.073ZM45.4769 15V9.627H43.6409V8.7H48.4739V9.627H46.6289V15H45.4769ZM52.2308 15.108C51.6008 15.108 51.0488 14.97 50.5748 14.694C50.1068 14.418 49.7378 14.037 49.4678 13.551C49.2038 13.059 49.0718 12.492 49.0718 11.85C49.0718 11.208 49.2038 10.644 49.4678 10.158C49.7378 9.666 50.1068 9.282 50.5748 9.006C51.0488 8.73 51.6008 8.592 52.2308 8.592C52.8548 8.592 53.4038 8.73 53.8778 9.006C54.3518 9.282 54.7208 9.666 54.9848 10.158C55.2488 10.644 55.3808 11.208 55.3808 11.85C55.3808 12.492 55.2488 13.059 54.9848 13.551C54.7208 14.037 54.3518 14.418 53.8778 14.694C53.4038 14.97 52.8548 15.108 52.2308 15.108ZM52.2308 14.073C52.8308 14.073 53.3078 13.875 53.6618 13.479C54.0218 13.083 54.2018 12.54 54.2018 11.85C54.2018 11.16 54.0218 10.617 53.6618 10.221C53.3078 9.825 52.8308 9.627 52.2308 9.627C51.6308 9.627 51.1508 9.825 50.7908 10.221C50.4308 10.617 50.2508 11.16 50.2508 11.85C50.2508 12.54 50.4308 13.083 50.7908 13.479C51.1508 13.875 51.6308 14.073 52.2308 14.073ZM61.6564 15.108C61.0624 15.108 60.5434 14.973 60.0994 14.703C59.6554 14.433 59.3104 14.058 59.0644 13.578C58.8184 13.092 58.6954 12.528 58.6954 11.886C58.6954 11.238 58.8214 10.668 59.0734 10.176C59.3314 9.678 59.6944 9.291 60.1624 9.015C60.6364 8.733 61.1974 8.592 61.8454 8.592C62.5834 8.592 63.1954 8.769 63.6814 9.123C64.1674 9.477 64.4824 9.966 64.6264 10.59H63.3394C63.2434 10.296 63.0694 10.068 62.8174 9.906C62.5654 9.738 62.2414 9.654 61.8454 9.654C61.2154 9.654 60.7294 9.855 60.3874 10.257C60.0454 10.653 59.8744 11.199 59.8744 11.895C59.8744 12.591 60.0424 13.131 60.3784 13.515C60.7204 13.893 61.1824 14.082 61.7644 14.082C62.3344 14.082 62.7634 13.929 63.0514 13.623C63.3454 13.311 63.5224 12.903 63.5824 12.399H61.9894V11.535H64.7434V15H63.6814L63.5914 14.172C63.3874 14.472 63.1324 14.703 62.8264 14.865C62.5204 15.027 62.1304 15.108 61.6564 15.108ZM66.0434 15V8.7H67.1954V15H66.0434ZM70.0634 15V9.627H68.2274V8.7H73.0604V9.627H71.2154V15H70.0634ZM74.0938 15V8.7H75.2458V11.319H78.0718V8.7H79.2238V15H78.0718V12.255H75.2458V15H74.0938ZM83.0583 15.108C82.5963 15.108 82.1793 15.018 81.8073 14.838C81.4353 14.652 81.1383 14.373 80.9163 14.001C80.7003 13.629 80.5923 13.158 80.5923 12.588V8.7H81.7443V12.597C81.7443 13.089 81.8613 13.455 82.0953 13.695C82.3353 13.935 82.6653 14.055 83.0853 14.055C83.4993 14.055 83.8263 13.935 84.0663 13.695C84.3063 13.455 84.4263 13.089 84.4263 12.597V8.7H85.5783V12.588C85.5783 13.158 85.4643 13.629 85.2363 14.001C85.0083 14.373 84.7023 14.652 84.3183 14.838C83.9403 15.018 83.5203 15.108 83.0583 15.108ZM86.9343 15V8.7H89.4633C90.1173 8.7 90.6153 8.853 90.9573 9.159C91.3053 9.459 91.4793 9.846 91.4793 10.32C91.4793 10.716 91.3713 11.034 91.1553 11.274C90.9453 11.508 90.6873 11.667 90.3813 11.751C90.7413 11.823 91.0383 12.003 91.2723 12.291C91.5063 12.573 91.6233 12.903 91.6233 13.281C91.6233 13.779 91.4433 14.19 91.0833 14.514C90.7233 14.838 90.2133 15 89.5533 15H86.9343ZM88.0863 11.346H89.2923C89.6163 11.346 89.8653 11.271 90.0393 11.121C90.2133 10.971 90.3003 10.758 90.3003 10.482C90.3003 10.218 90.2133 10.011 90.0393 9.861C89.8713 9.705 89.6163 9.627 89.2743 9.627H88.0863V11.346ZM88.0863 14.064H89.3733C89.7153 14.064 89.9793 13.986 90.1653 13.83C90.3573 13.668 90.4533 13.443 90.4533 13.155C90.4533 12.861 90.3543 12.63 90.1563 12.462C89.9583 12.294 89.6913 12.21 89.3553 12.21H88.0863V14.064Z" fill="#E7E7E7"/>
<defs>
<clipPath id="clip0_8836_24482">
<rect width="18" height="18" fill="white" transform="translate(4 3)"/>
</clipPath>
</defs>
</svg>